<svg xmlns="http://www.w3.org/2000/svg" version="1.1" xmlns:xlink="http://www.w3.org/1999/xlink" xmlns:svgjs="http://svgjs.dev/svgjs" width="1440" height="560" preserveAspectRatio="none" viewBox="0 0 1440 560"><g mask="url(&quot;#SvgjsMask1001&quot;)" fill="none"><path d="M0 40C8.41 13.73 17.72 7.74 44.8 0C87.72 -12.26 92.4 0 140 0C210 0 210 0 280 0C350 0 350 0 420 0C490 0 490 0 560 0C560 0 560 0 560 0C630 1.55 630.58 3.11 700 3.11C702.29 3.11 701.12 0.05 703.41 0C771.12 -1.5 771.7 0 840 0C910 0 980 -19.81 980 0C980 23.26 905.76 37.87 840 86.15C810.4 107.87 789.28 112.36 789.28 140C789.28 169.45 812.4 172.32 840 200.34C881.35 242.32 881.62 242.69 927.17 280C951.62 300.02 953.51 315 980 315C1006.85 315 1017.71 306.23 1033.85 280C1071.55 218.73 1053.16 203.43 1087.69 140C1096.23 124.3 1104.01 131.15 1120 121.74C1190.16 80.46 1184.86 64.18 1260 38.62C1324.86 16.56 1333.21 41.12 1400 26.49C1421.36 21.81 1415.14 4 1436.3 0C1485.14 -9.24 1517.94 -29.79 1540 0C1569.79 40.21 1540 70 1540 140C1540 210 1540 210 1540 280C1540 350 1540 350 1540 420C1540 490 1575 525 1540 560C1505 595 1470 560 1400 560C1330 560 1330 560 1260 560C1190 560 1190 560 1120 560C1050 560 1050 560 980 560C910 560 910 560 840 560C770 560 770 560 700 560C630 560 630 560 560 560C490 560 490 560 420 560C350 560 350 560 280 560C210 560 210 560 140 560C70 560 39.26 590.74 0 560C-30.74 535.92 -30.54 469.52 0 450.36C39.46 425.6 80.5 482.84 140 472.16C165.11 467.66 169.23 448.01 169.23 420C169.23 364.11 161.45 358.08 140 304.35C133.5 288.08 128.52 289.62 113.33 280C58.52 245.29 35.85 259.96 0 215.68C-20.82 189.96 0 177.84 0 140C0 90 -13.99 83.73 0 40" stroke="rgba(51, 121, 194, 0.58)" stroke-width="2"></path><path d="M420 244.31C399.33 244.31 389.67 262.89 389.67 280C389.67 295.41 400.72 309.35 420 309.35C480.88 309.35 550 296.17 550 280C550 263.65 479.49 244.31 420 244.31" stroke="rgba(51, 121, 194, 0.58)" stroke-width="2"></path><path d="M700 265.71C643.63 265.71 583.33 252.76 583.33 280C583.33 318.24 660.64 396.67 700 396.67C728.18 396.67 718.42 334.69 718.42 280C718.42 269.21 711.18 265.71 700 265.71" stroke="rgba(51, 121, 194, 0.58)" stroke-width="2"></path><path d="M1260 246.27C1230.2 256.05 1206.15 263.13 1206.15 280C1206.15 296.87 1231.8 299.19 1260 313.73C1328.73 349.19 1342.52 389.58 1400 380C1443.77 372.71 1462.5 326.58 1462.5 280C1462.5 244.76 1438.87 222.83 1400 216.36C1337.62 205.97 1327.13 224.23 1260 246.27" stroke="rgba(51, 121, 194, 0.58)" stroke-width="2"></path><path d="M53.85 140C53.85 110.65 103.18 70 140 70C166.99 70 181.48 107.99 181.48 140C181.48 162.3 163.94 178.62 140 178.62C100.12 178.62 53.85 164.96 53.85 140" stroke="rgba(51, 121, 194, 0.58)" stroke-width="2"></path><path d="M280 61.76C237.16 27.37 188.7 16.89 188.7 0C188.7 -13.99 234.35 0 280 0C350 0 350 0 420 0C459.3 0 472.45 -21.79 498.6 0C542.45 36.55 511.96 97.37 560 116.67C612.66 137.82 640.02 73.05 700 80.89C729.29 84.72 738.55 110.83 738.55 140C738.55 167.53 728.33 190.46 700 194.29C639.06 202.53 630.67 168.83 560 164.14C490.67 159.53 486.6 183.86 420 175.69C388.17 171.79 389.05 161.1 363.13 140C319.05 104.13 324.37 97.37 280 61.76" stroke="rgba(51, 121, 194, 0.58)" stroke-width="2"></path><path d="M840 32.31C814.3 32.31 788.78 8.75 788.78 0C788.78 -7.4 814.39 0 840 0C866.25 0 892.5 -7.43 892.5 0C892.5 8.72 866.16 32.31 840 32.31" stroke="rgba(51, 121, 194, 0.58)" stroke-width="2"></path><path d="M1171.33 140C1171.33 108.93 1211.5 82.86 1260 78.85C1325.84 73.4 1336.33 135.47 1400 121.08C1476.33 103.83 1499.06 10.03 1540 15.56C1569.06 19.49 1540 77.78 1540 140C1540 210 1540 210 1540 280C1540 306.25 1543.68 332.5 1540 332.5C1536.18 332.5 1541.4 301.06 1525 280C1471.4 211.18 1472.17 173.4 1400 152.73C1339.67 135.45 1325.95 207.77 1260 204.1C1211.61 201.41 1171.33 171.56 1171.33 140" stroke="rgba(51, 121, 194, 0.58)" stroke-width="2"></path><path d="M208.37 280C223.76 234.21 247.24 204.88 280 204.88C308.72 204.88 301.62 245.85 331.33 280C371.62 326.32 366.65 349.81 420 365.81C480.99 384.1 498.4 332.78 560 348.57C604.11 359.88 631.43 384.1 631.43 420C631.43 456.28 594.11 455.02 560 492.92C531.1 525.02 540.64 543.13 505.42 560C470.64 576.67 462.71 560 420 560C350 560 350 560 280 560C210 560 210 560 140 560C70 560 47.24 582.76 0 560C-22.76 549.03 -21.91 495.54 0 492.53C48.09 485.93 86.33 559.52 140 540.78C190.18 523.26 190.69 484.83 207.69 420C224.88 354.44 187.61 341.77 208.37 280" stroke="rgba(51, 121, 194, 0.58)" stroke-width="2"></path><path d="M810.53 280C810.53 266.2 826.04 260.69 840 260.69C851.34 260.69 861.13 267.63 861.13 280C861.13 308.4 852.36 342.22 840 342.22C827.06 342.22 810.53 306.97 810.53 280" stroke="rgba(51, 121, 194, 0.58)" stroke-width="2"></path><path d="M1101.15 280C1115.94 268.11 1110.57 246.21 1120 246.21C1129.43 246.21 1123.94 268.32 1138.85 280C1193.94 323.16 1199.57 317.71 1260 355.9C1310.34 387.71 1313.76 383.77 1360.38 420C1383.76 438.16 1373.15 458.34 1400 464.68C1462.96 479.55 1498.75 434.33 1540 462.42C1568.75 481.99 1568.75 539.96 1540 560C1498.75 588.75 1470 560 1400 560C1330 560 1330 560 1260 560C1190 560 1190 560 1120 560C1055.39 560 1055.07 561.79 990.77 560C985.07 559.84 985.09 556.11 980 556.11C977.11 556.11 978.02 559.91 974.81 560C908.02 561.86 907.4 560 840 560C770 560 770 560 700 560C668.34 560 636.67 572.9 636.67 560C636.67 541.97 661.53 517.27 700 498.14C763.19 466.72 776.27 487.99 840 458.89C861.83 448.92 851.16 434.27 871.11 420C921.16 384.2 926.67 391.21 980 358.75C1041.69 321.21 1045.94 324.38 1101.15 280" stroke="rgba(51, 121, 194, 0.58)" stroke-width="2"></path><path d="M420 51.58C398.02 51.58 362.35 14.78 362.35 0C362.35 -11.01 391.17 0 420 0C428.6 0 437.19 -6.2 437.19 0C437.19 19.59 435.44 51.58 420 51.58" stroke="rgba(51, 121, 194, 0.58)" stroke-width="2"></path><path d="M1229.67 140C1229.67 129.37 1243.57 119.08 1260 119.08C1286.31 119.08 1315.15 129.32 1315.15 140C1315.15 150.75 1286.21 161.93 1260 161.93C1243.47 161.93 1229.67 150.8 1229.67 140" stroke="rgba(51, 121, 194, 0.58)" stroke-width="2"></path><path d="M1480 140C1480 114.58 1521.41 93.33 1540 93.33C1551.41 93.33 1540 116.66 1540 140C1540 170.88 1552.53 201.76 1540 201.76C1522.53 201.76 1480 168.8 1480 140" stroke="rgba(51, 121, 194, 0.58)" stroke-width="2"></path><path d="M246.15 420C246.15 359.32 245.4 296.8 280 296.8C329.28 296.8 348.63 357.11 413.91 420C418.63 424.55 418.53 425.28 420 431.67C434.62 495.28 446.1 506.5 446.1 560C446.1 570.66 433.05 560 420 560C389.2 560 385.86 570.68 358.4 560C315.86 543.46 308.58 541.2 280 505.56C252.45 471.2 246.15 463.7 246.15 420" stroke="rgba(51, 121, 194, 0.58)" stroke-width="2"></path><path d="M948.89 420C948.89 408.23 963.42 402.5 980 402.5C1009.41 402.5 1040.87 406.83 1040.87 420C1040.87 435.02 1007.22 458.89 980 458.89C961.23 458.89 948.89 436.42 948.89 420" stroke="rgba(51, 121, 194, 0.58)" stroke-width="2"></path><path d="M1190 420C1205.05 392.31 1226.46 398.07 1260 398.07C1278.63 398.07 1280.08 405.63 1294.34 420C1350.08 476.17 1336.76 497.88 1400 539.15C1444.03 567.88 1508.89 554.74 1508.89 560C1508.89 565.17 1454.45 560 1400 560C1330 560 1330 560 1260 560C1216 560 1185.44 586.88 1172 560C1150.44 516.88 1161.05 473.28 1190 420" stroke="rgba(51, 121, 194, 0.58)" stroke-width="2"></path><path d="M0 534.7C23.24 534.7 63.64 553.44 63.64 560C63.64 566.09 22.77 569.05 0 560C-9.05 556.4 -8.58 534.7 0 534.7" stroke="rgba(51, 121, 194, 0.58)" stroke-width="2"></path><path d="M820 560C820 559.02 830.45 556.11 840 556.11C843.04 556.11 845.19 558.92 845.19 560C845.19 560.86 842.6 560 840 560C830 560 820 560.96 820 560" stroke="rgba(51, 121, 194, 0.58)" stroke-width="2"></path></g><defs><mask id="SvgjsMask1001"><rect width="1440" height="560" fill="#ffffff"></rect></mask></defs></svg>